<svg xmlns="http://www.w3.org/2000/svg" xmlns:xlink="http://www.w3.org/1999/xlink" width="1000px" height="500px" viewBox="0 0 1000 500" zoomAndPan="disable" preserveAspectRatio="none">

    <style type="text/css"><![CDATA[
		d
		{
			stroke: rgba(255,255,255,0.05);
			stroke-width: 5px;
		}
    ]]></style>

	<g transform="translate(100.000000,500.000000) scale(0.100000,-0.100000)" stroke= "grey" stroke-width= "25">
<path d="M660 7118 c0 -6 10 -22 22 -35 l21 -23 -21 -23 c-47 -50 -11 -99 37
-53 l27 25 29 -24 c31 -27 43 -28 59 -2 8 12 5 22 -12 40 -27 29 -27 39 -2 62
42 38 5 61 -55 33 -19 -9 -28 -9 -37 0 -16 16 -68 15 -68 0z"/>
<path d="M6967 6973 c-13 -12 -7 -37 15 -60 l21 -23 -22 -24 c-26 -28 -25 -59
3 -64 10 -2 29 6 42 19 l24 22 24 -22 c13 -13 32 -21 42 -19 28 5 29 36 3 64
l-22 24 22 24 c13 13 21 32 19 42 -5 28 -36 29 -64 3 l-24 -22 -23 21 c-23 22
-48 28 -60 15z"/>
<path d="M9341 6924 c-12 -15 -21 -34 -21 -44 0 -32 39 -70 71 -70 36 0 79 39
79 73 0 63 -89 91 -129 41z"/>
<path d="M2894 6849 c-60 -30 -67 -117 -13 -163 41 -35 80 -33 124 5 28 25 35
38 35 68 -1 74 -78 122 -146 90z"/>
<path d="M5040 6618 c-52 -32 -54 -34 -57 -83 -5 -76 2 -89 57 -119 l50 -27 0
-162 -1 -162 -117 -65 -117 -65 0 -145 0 -145 117 -70 118 -70 -3 -195 -2
-194 -183 -102 c-101 -55 -182 -105 -180 -110 4 -13 3 -13 191 92 93 52 171
94 173 94 2 0 4 -52 4 -115 0 -70 4 -115 10 -115 6 0 10 45 10 115 0 63 2 115
5 115 3 0 83 -43 177 -96 198 -109 182 -102 186 -90 2 5 -79 55 -180 112
l-183 102 -3 193 -2 194 120 70 120 70 0 142 0 143 -37 23 c-21 13 -75 44
-120 68 l-83 44 0 160 0 160 55 33 55 33 0 67 0 67 -59 33 c-32 17 -60 32 -63
32 -2 0 -28 -15 -58 -32z m114 -12 l39 -24 -41 -26 c-23 -14 -45 -26 -48 -26
-4 0 -27 12 -52 26 l-44 26 38 24 c49 29 60 29 108 0z m-95 -72 l40 -26 44 26
c24 14 47 26 50 26 4 0 7 -24 7 -52 l0 -53 -50 -28 -50 -28 -48 29 c-45 27
-47 30 -50 80 -4 60 2 63 57 26z m31 -549 c0 -30 5 -55 10 -55 6 0 10 25 10
55 0 31 5 55 10 55 16 0 190 -100 190 -109 0 -8 -194 -131 -207 -131 -12 0
-213 124 -213 131 0 8 178 109 193 109 4 0 7 -25 7 -55z m-98 -141 l110 -66
108 66 c59 36 111 66 114 66 3 0 6 -58 6 -129 l0 -128 -111 -67 c-61 -36 -113
-66 -117 -66 -3 0 -56 30 -119 66 l-113 66 0 129 c0 71 3 129 7 129 3 0 55
-30 115 -66z"/>
<path d="M2437 5903 c-13 -12 -7 -37 15 -60 l21 -23 -22 -24 c-44 -47 -2 -89
45 -45 l24 22 24 -22 c47 -44 89 -2 45 45 l-22 24 22 24 c44 47 2 89 -45 45
l-24 -22 -23 21 c-23 22 -48 28 -60 15z"/>
<path d="M5510 5670 c0 -5 7 -10 15 -10 8 0 15 5 15 10 0 6 -7 10 -15 10 -8 0
-15 -4 -15 -10z"/>
<path d="M4600 5640 c0 -5 4 -10 9 -10 6 0 13 5 16 10 3 6 -1 10 -9 10 -9 0
-16 -4 -16 -10z"/>
<path d="M7375 5638 c-49 -28 -59 -81 -22 -116 40 -38 97 -25 115 25 13 38 -1
69 -37 87 -35 19 -31 18 -56 4z"/>
<path d="M5730 5550 c0 -5 7 -10 16 -10 8 0 12 5 9 10 -3 6 -10 10 -16 10 -5
0 -9 -4 -9 -10z"/>
<path d="M4390 5520 c0 -5 5 -10 10 -10 6 0 10 5 10 10 0 6 -4 10 -10 10 -5 0
-10 -4 -10 -10z"/>
<path d="M5945 5430 c3 -5 10 -10 16 -10 5 0 9 5 9 10 0 6 -7 10 -16 10 -8 0
-12 -4 -9 -10z"/>
<path d="M4170 5400 c0 -5 4 -10 9 -10 6 0 13 5 16 10 3 6 -1 10 -9 10 -9 0
-16 -4 -16 -10z"/>
<path d="M6155 5310 c3 -5 10 -10 16 -10 5 0 9 5 9 10 0 6 -7 10 -16 10 -8 0
-12 -4 -9 -10z"/>
<path d="M3990 5265 c0 -8 5 -15 10 -15 6 0 10 7 10 15 0 8 -4 15 -10 15 -5 0
-10 -7 -10 -15z"/>
<path d="M12 5258 c-17 -17 -15 -32 8 -53 25 -23 25 -37 0 -60 -25 -23 -25
-41 -1 -55 16 -8 26 -5 48 14 l28 24 28 -24 c15 -13 34 -21 42 -18 21 9 18 48
-5 69 l-20 18 20 22 c42 45 11 98 -34 56 -28 -26 -38 -26 -61 -1 -21 23 -36
25 -53 8z"/>
<path d="M8926 5215 c-3 -9 1 -18 10 -22 19 -7 28 2 21 22 -8 19 -23 19 -31 0z"/>
<path d="M1447 5119 c-30 -18 -39 -56 -21 -94 24 -51 88 -54 117 -6 22 38 21
53 -4 85 -22 28 -59 34 -92 15z"/>
<path d="M6186 5091 c-4 -7 -5 -15 -2 -18 9 -9 19 4 14 18 -4 11 -6 11 -12 0z"/>
<path d="M3996 5031 c-4 -7 -5 -15 -2 -18 9 -9 19 4 14 18 -4 11 -6 11 -12 0z"/>
<path d="M4690 4863 c0 -4 -1 -101 -1 -215 l0 -207 -57 -35 c-57 -36 -48 -52
12 -21 15 8 32 15 36 15 5 0 39 -18 78 -40 38 -22 78 -40 88 -40 10 0 -16 21
-58 46 -43 25 -78 49 -78 53 0 6 33 27 139 88 50 28 76 53 54 53 -4 0 -50 -25
-100 -54 l-93 -55 0 204 c0 125 -4 206 -10 210 -5 3 -10 3 -10 -2z"/>
<path d="M5495 4860 c-4 -6 -5 -91 -4 -190 1 -99 0 -183 -3 -186 -6 -5 -63 27
-157 88 -47 29 -61 34 -61 19 0 -5 51 -39 113 -76 61 -37 113 -69 115 -70 13
-11 -32 -47 -156 -121 -81 -49 -140 -90 -131 -92 21 -4 303 165 307 184 3 12
15 9 59 -16 30 -17 61 -30 69 -28 8 2 -17 21 -56 43 l-69 40 -1 208 c0 190 -5
229 -25 197z"/>
<path d="M8621 4856 c-14 -16 -4 -43 24 -66 14 -12 13 -16 -10 -40 -44 -46 -7
-88 42 -46 l28 24 28 -24 c23 -19 32 -22 48 -14 24 14 24 32 -1 55 -25 23 -25
29 2 65 17 24 19 32 8 45 -17 20 -33 19 -55 -5 -10 -11 -23 -20 -30 -20 -7 0
-20 9 -30 20 -21 24 -38 25 -54 6z"/>
<path d="M6180 4835 c0 -8 5 -15 10 -15 6 0 10 7 10 15 0 8 -4 15 -10 15 -5 0
-10 -7 -10 -15z"/>
<path d="M3990 4775 c0 -8 5 -15 10 -15 6 0 10 7 10 15 0 8 -4 15 -10 15 -5 0
-10 -7 -10 -15z"/>
<path d="M6180 4595 c0 -8 5 -15 10 -15 6 0 10 7 10 15 0 8 -4 15 -10 15 -5 0
-10 -7 -10 -15z"/>
<path d="M3407 4517 l-57 -32 0 -70 0 -70 52 -30 c29 -16 56 -31 59 -33 3 -1
31 12 63 30 l56 32 0 71 0 70 -58 32 -57 32 -58 -32z m103 -9 c22 -13 40 -25
40 -28 0 -8 -68 -50 -81 -50 -14 0 -89 42 -89 49 0 6 70 48 83 50 4 1 26 -9
47 -21z m4 -74 c24 14 47 26 51 26 3 0 5 -23 3 -52 -3 -50 -5 -52 -52 -81
l-49 -30 -44 23 c-51 27 -65 49 -62 93 4 49 7 49 59 21 l49 -27 45 27z"/>
<path d="M3990 4530 c0 -5 5 -10 10 -10 6 0 10 5 10 10 0 6 -4 10 -10 10 -5 0
-10 -4 -10 -10z"/>
<path d="M6180 4345 c0 -8 5 -15 10 -15 6 0 10 7 10 15 0 8 -4 15 -10 15 -5 0
-10 -7 -10 -15z"/>
<path d="M5710 4332 c0 -9 55 -52 67 -52 4 0 19 -9 33 -20 14 -11 36 -20 49
-20 18 0 2 14 -58 50 -87 53 -91 55 -91 42z"/>
<path d="M4880 4298 c0 -11 136 -98 153 -98 29 0 -30 43 -145 107 -5 2 -8 -2
-8 -9z"/>
<path d="M3990 4291 c0 -6 5 -13 10 -16 6 -3 10 1 10 9 0 9 -4 16 -10 16 -5 0
-10 -4 -10 -9z"/>
<path d="M4405 4270 c-37 -22 -44 -30 -28 -30 28 0 83 31 83 48 0 15 4 16 -55
-18z"/>
<path d="M3454 4237 c-3 -13 -4 -59 -2 -103 l4 -79 -200 -111 -201 -112 0
-248 0 -249 205 -122 204 -122 36 20 c246 143 380 226 380 237 0 6 5 12 12 12
7 0 98 -51 203 -114 104 -62 278 -166 385 -229 107 -64 201 -121 208 -127 8
-8 12 -48 12 -134 l0 -124 208 -124 c115 -69 206 -129 204 -136 -1 -7 -2 -106
-3 -220 l0 -207 -117 -64 c-64 -36 -111 -66 -106 -68 6 -2 54 21 108 52 54 30
102 55 107 55 5 0 9 -36 9 -80 0 -47 4 -80 10 -80 6 0 10 32 10 75 0 52 4 75
12 75 7 0 52 -23 101 -51 49 -27 93 -49 99 -47 5 2 -39 31 -99 64 l-108 61 -3
230 -2 230 200 119 200 119 0 146 0 147 173 103 c94 56 246 147 336 201 l164
98 203 -120 203 -120 205 123 206 122 0 252 c0 139 -4 253 -9 253 -5 0 -97 50
-205 110 l-197 110 -110 -60 -110 -61 -97 59 c-53 33 -113 69 -132 80 -19 10
-63 36 -97 56 -34 20 -66 36 -71 36 -6 0 -12 3 -14 8 -6 13 -69 54 -75 48 -11
-11 7 -37 32 -46 14 -5 80 -43 148 -83 67 -40 157 -93 199 -118 43 -24 78 -47
78 -51 0 -4 -38 -28 -85 -53 l-86 -47 1 -241 1 -240 -48 -29 c-26 -16 -55 -33
-63 -38 -8 -5 -55 -32 -105 -61 -49 -29 -167 -99 -262 -156 -94 -57 -174 -103
-177 -103 -3 0 -6 37 -6 83 l0 82 -157 88 c-87 47 -181 100 -209 116 l-50 29
-207 -115 -207 -115 0 -98 c0 -55 -4 -101 -9 -104 -8 -5 -148 74 -326 184
-129 80 -480 285 -485 283 -3 -1 -4 97 -2 217 l3 218 -41 23 c-22 12 -40 25
-40 28 1 3 51 36 113 72 62 37 165 99 230 137 65 39 127 74 137 77 11 4 20 10
20 15 0 4 9 10 20 13 11 3 20 12 20 21 0 18 1 19 -184 -93 -77 -46 -127 -71
-139 -67 -13 3 -21 -1 -24 -13 -5 -19 -198 -141 -223 -141 -9 0 -78 35 -154
78 l-139 77 2 103 c1 65 -2 102 -8 102 -6 0 -13 -11 -17 -23z m3342 -306 c98
-55 180 -103 181 -108 1 -4 -81 -58 -183 -120 l-186 -111 -166 100 c-92 55
-178 106 -191 115 -23 15 -23 15 54 59 43 24 81 44 85 44 5 0 61 -31 127 -70
108 -64 153 -84 139 -62 -3 5 -42 30 -88 57 -142 82 -149 87 -143 94 13 12
170 100 182 100 6 1 91 -44 189 -98z m-3344 -18 c4 -137 22 -136 25 0 0 54 4
101 7 104 5 5 213 -105 243 -129 16 -13 4 -24 -67 -62 -30 -17 -70 -40 -89
-53 -18 -13 -38 -23 -42 -23 -5 0 -9 -4 -9 -10 0 -19 21 -10 131 55 60 36 115
65 122 65 6 0 25 -9 41 -19 l29 -20 -62 -38 c-34 -21 -99 -61 -144 -88 -45
-28 -102 -62 -127 -77 l-45 -26 -178 107 c-98 59 -182 112 -187 117 -7 7 49
43 162 107 95 53 176 96 180 97 4 0 9 -48 10 -107z m-183 -229 c106 -64 197
-114 205 -111 7 3 95 55 195 116 101 61 185 111 187 111 2 0 4 -85 4 -190 0
-104 -3 -190 -6 -190 -3 0 -42 20 -87 45 -44 25 -85 44 -90 42 -12 -4 29 -33
93 -68 25 -13 51 -30 58 -36 7 -7 18 -13 23 -13 6 0 9 -10 7 -22 -2 -16 -45
-47 -168 -120 -91 -54 -179 -106 -197 -115 l-31 -16 -196 117 -196 117 0 224
c0 124 2 225 4 225 3 0 90 -52 195 -116z m3240 -58 c51 -31 99 -55 105 -53 6
3 94 55 196 115 l185 111 3 -227 c1 -125 -1 -228 -5 -229 -5 -2 -91 -53 -192
-113 -101 -61 -187 -110 -192 -110 -6 0 -251 143 -358 209 -20 12 -9 24 69 70
38 23 70 46 70 51 0 15 -4 13 -85 -36 -41 -25 -79 -43 -85 -39 -11 7 -15 407
-4 417 5 6 89 -42 293 -166z m-1201 -402 c95 -53 172 -100 170 -106 -2 -5 -85
-59 -185 -120 l-181 -109 -186 111 c-102 62 -186 115 -186 118 0 4 33 25 72
47 134 74 183 101 238 133 30 18 62 29 70 26 8 -3 93 -48 188 -100z m-300
-298 c51 -31 98 -56 104 -56 6 0 92 50 193 110 100 61 187 110 193 110 13 0
17 -128 4 -145 -4 -6 -55 -40 -115 -75 -60 -36 -100 -66 -92 -68 9 -2 57 21
108 52 50 31 95 52 99 48 5 -5 7 -64 6 -133 l-3 -123 -190 -113 c-104 -62
-196 -113 -203 -113 -8 0 -99 51 -203 113 l-189 112 0 113 0 113 28 -15 c15
-8 54 -30 86 -50 33 -20 64 -36 69 -36 24 0 -7 26 -88 73 l-90 53 -3 101 -3
102 98 -58 c54 -32 140 -84 191 -115z"/>
<path d="M6180 4105 c0 -8 5 -15 10 -15 6 0 10 7 10 15 0 8 -4 15 -10 15 -5 0
-10 -7 -10 -15z"/>
<path d="M1751 3905 c-119 -66 -136 -81 -121 -105 7 -11 10 -12 10 -2 0 7 5
10 11 6 8 -4 9 0 4 15 -3 11 -2 21 3 21 5 0 54 25 110 56 l101 55 106 -61 c59
-34 109 -59 113 -56 3 3 3 8 1 9 -4 4 -170 96 -204 114 -17 9 -40 0 -134 -52z"/>
<path d="M8195 3915 c-44 -24 -74 -45 -66 -45 14 0 161 78 161 86 0 10 -19 1
-95 -41z"/>
<path d="M8301 3946 c18 -16 192 -107 200 -104 12 4 -173 108 -192 108 -7 0
-10 -2 -8 -4z"/>
<path d="M6055 3931 c-3 -5 -1 -12 4 -15 5 -3 11 1 15 9 6 16 -9 21 -19 6z"/>
<path d="M4165 3900 c3 -5 11 -10 16 -10 6 0 7 5 4 10 -3 6 -11 10 -16 10 -6
0 -7 -4 -4 -10z"/>
<path d="M8066 3834 c-9 -8 -16 -23 -15 -32 0 -9 3 -12 5 -6 3 7 15 10 27 7
21 -5 21 -5 3 9 -19 15 -19 15 0 26 10 6 14 12 7 12 -6 0 -19 -7 -27 -16z"/>
<path d="M8513 3824 c-16 -16 -17 -28 -3 -19 7 4 10 -37 8 -126 l-3 -133 -105
-63 c-58 -35 -112 -63 -120 -63 -8 0 -62 28 -120 63 l-105 62 -3 100 c-4 141
-22 148 -22 8 l0 -112 88 -53 c48 -29 101 -60 117 -69 l30 -16 3 -194 2 -194
-180 -99 c-163 -89 -219 -126 -193 -126 5 0 87 43 181 95 95 52 177 95 182 95
6 0 10 -45 10 -115 0 -70 4 -115 10 -115 6 0 10 45 10 116 0 107 1 115 18 110
10 -4 91 -47 181 -96 89 -50 166 -88 172 -84 9 5 -116 80 -303 182 l-68 36 0
177 c0 98 -2 183 -5 191 -3 8 8 21 27 32 194 110 207 119 213 161 6 42 2 252
-6 259 -2 2 -10 -2 -16 -10z"/>
<path d="M2103 3785 c0 -22 2 -30 4 -17 2 12 2 30 0 40 -3 9 -5 -1 -4 -23z"/>
<path d="M5850 3810 c-8 -5 -11 -12 -7 -16 4 -4 13 -2 19 4 15 15 7 24 -12 12z"/>
<path d="M2030 3790 c-14 -11 -21 -20 -17 -20 11 0 67 29 67 35 0 11 -27 3
-50 -15z"/>
<path d="M8467 3803 c-4 -3 -7 -11 -7 -17 0 -6 5 -5 12 2 6 6 9 14 7 17 -3 3
-9 2 -12 -2z"/>
<path d="M1680 3793 c0 -10 57 -43 73 -43 6 0 -5 11 -25 25 -39 26 -48 30 -48
18z"/>
<path d="M8115 3780 c3 -5 11 -10 16 -10 6 0 7 5 4 10 -3 6 -11 10 -16 10 -6
0 -7 -4 -4 -10z"/>
<path d="M4385 3770 c3 -5 8 -10 11 -10 2 0 4 5 4 10 0 6 -5 10 -11 10 -5 0
-7 -4 -4 -10z"/>
<path d="M8414 3766 c-10 -8 -17 -17 -14 -19 3 -3 14 1 24 9 11 7 17 16 15 19
-3 3 -14 -2 -25 -9z"/>
<path d="M1622 3745 c0 -16 2 -22 5 -12 2 9 2 23 0 30 -3 6 -5 -1 -5 -18z"/>
<path d="M1985 3760 c-3 -5 -1 -10 4 -10 6 0 11 5 11 10 0 6 -2 10 -4 10 -3 0
-8 -4 -11 -10z"/>
<path d="M8170 3752 c0 -9 106 -72 121 -72 15 0 91 51 85 57 -3 3 -20 -4 -39
-16 -44 -27 -51 -27 -109 9 -52 32 -58 34 -58 22z"/>
<path d="M1790 3720 c54 -42 75 -45 126 -15 25 15 43 29 40 32 -3 3 -21 -4
-41 -16 -45 -26 -56 -26 -97 -1 -42 25 -61 26 -28 0z"/>
<path d="M2100 3646 l-5 -99 -115 -68 -114 -68 -41 25 c-22 13 -73 43 -112 66
l-73 43 0 78 c0 44 -4 77 -10 77 -6 0 -10 -33 -10 -79 l0 -79 100 -62 c154
-95 137 -94 269 -14 62 37 115 73 117 79 3 6 3 54 2 106 l-3 94 -5 -99z"/>
<path d="M5635 3680 c-3 -5 1 -10 9 -10 9 0 16 5 16 10 0 6 -4 10 -9 10 -6 0
-13 -4 -16 -10z"/>
<path d="M4580 3650 c0 -5 7 -10 16 -10 8 0 12 5 9 10 -3 6 -10 10 -16 10 -5
0 -9 -4 -9 -10z"/>
<path d="M2282 3568 c5 -15 28 -23 28 -10 0 5 -7 13 -16 16 -10 4 -14 1 -12
-6z"/>
<path d="M1367 3543 c-12 -12 -7 -22 8 -17 8 4 15 10 15 15 0 11 -14 12 -23 2z"/>
<path d="M7785 3541 c-6 -11 9 -23 19 -14 9 9 7 23 -3 23 -6 0 -12 -4 -16 -9z"/>
<path d="M4796 3532 c-3 -6 -1 -14 5 -17 15 -10 25 3 12 16 -7 7 -13 7 -17 1z"/>
<path d="M2490 3450 c0 -5 7 -10 16 -10 8 0 12 5 9 10 -3 6 -10 10 -16 10 -5
0 -9 -4 -9 -10z"/>
<path d="M8920 3450 c0 -5 5 -10 10 -10 6 0 10 5 10 10 0 6 -4 10 -10 10 -5 0
-10 -4 -10 -10z"/>
<path d="M5215 3430 c-3 -5 1 -10 9 -10 9 0 16 5 16 10 0 6 -4 10 -9 10 -6 0
-13 -4 -16 -10z"/>
<path d="M1155 3420 c-3 -5 1 -10 9 -10 9 0 16 5 16 10 0 6 -4 10 -9 10 -6 0
-13 -4 -16 -10z"/>
<path d="M7575 3420 c-3 -5 1 -10 9 -10 9 0 16 5 16 10 0 6 -4 10 -9 10 -6 0
-13 -4 -16 -10z"/>
<path d="M5005 3400 c3 -5 10 -10 16 -10 5 0 9 5 9 10 0 6 -7 10 -16 10 -8 0
-12 -4 -9 -10z"/>
<path d="M1855 3358 c-3 -13 -4 -95 -3 -183 l3 -160 -184 -103 c-200 -111
-197 -109 -188 -118 6 -6 35 9 245 125 63 34 117 60 120 56 3 -3 5 -48 3 -100
-3 -98 4 -139 20 -130 5 4 9 58 9 122 0 105 1 115 18 109 9 -4 90 -47 179 -97
89 -49 164 -89 167 -89 28 0 -21 33 -179 120 l-185 102 0 179 c0 104 -4 180
-10 184 -5 3 -12 -4 -15 -17z"/>
<path d="M2710 3331 c0 -6 5 -13 10 -16 6 -3 10 1 10 9 0 9 -4 16 -10 16 -5 0
-10 -4 -10 -9z"/>
<path d="M9132 3331 c4 -13 18 -16 19 -4 0 4 -5 9 -11 12 -7 2 -11 -2 -8 -8z"/>
<path d="M940 3300 c0 -5 5 -10 10 -10 6 0 10 5 10 10 0 6 -4 10 -10 10 -5 0
-10 -4 -10 -10z"/>
<path d="M7360 3300 c0 -5 5 -10 10 -10 6 0 10 5 10 10 0 6 -4 10 -10 10 -5 0
-10 -4 -10 -10z"/>
<path d="M2920 3210 c0 -5 7 -10 16 -10 8 0 12 5 9 10 -3 6 -10 10 -16 10 -5
0 -9 -4 -9 -10z"/>
<path d="M9350 3210 c0 -5 5 -10 11 -10 5 0 7 5 4 10 -3 6 -8 10 -11 10 -2 0
-4 -4 -4 -10z"/>
<path d="M7180 3165 c0 -8 5 -15 10 -15 6 0 10 7 10 15 0 8 -4 15 -10 15 -5 0
-10 -7 -10 -15z"/>
<path d="M760 3160 c0 -5 5 -10 10 -10 6 0 10 5 10 10 0 6 -4 10 -10 10 -5 0
-10 -4 -10 -10z"/>
<path d="M2950 2974 c0 -8 5 -12 10 -9 6 4 8 11 5 16 -9 14 -15 11 -15 -7z"/>
<path d="M9370 2980 c0 -5 5 -10 10 -10 6 0 10 5 10 10 0 6 -4 10 -10 10 -5 0
-10 -4 -10 -10z"/>
<path d="M760 2914 c0 -8 5 -12 10 -9 6 3 10 10 10 16 0 5 -4 9 -10 9 -5 0
-10 -7 -10 -16z"/>
<path d="M7180 2915 c0 -8 5 -15 10 -15 6 0 10 7 10 15 0 8 -4 15 -10 15 -5 0
-10 -7 -10 -15z"/>
<path d="M2268 2764 c-5 -4 -8 -103 -8 -221 0 -117 -2 -213 -5 -213 -11 0 -70
33 -122 67 -29 19 -57 31 -64 28 -7 -5 2 -16 24 -29 20 -11 61 -36 91 -54 31
-19 56 -37 56 -40 -1 -4 -69 -47 -153 -95 -167 -97 -205 -122 -196 -132 7 -6
362 202 367 215 2 4 24 -5 50 -22 116 -73 316 -187 321 -183 2 3 0 10 -5 15
-9 9 -207 131 -234 143 -8 4 -35 20 -60 35 l-45 28 -5 233 c-3 128 -8 229 -12
225z"/>
<path d="M7876 2760 c-4 -9 -5 -116 -4 -240 l3 -224 70 -41 c335 -199 325
-194 325 -176 0 5 -82 57 -182 117 -101 59 -185 109 -187 110 -2 2 -3 94 -2
206 1 192 -8 284 -23 248z"/>
<path d="M8688 2764 c-5 -4 -8 -109 -8 -233 l-1 -226 -171 -100 c-195 -114
-205 -121 -196 -130 9 -10 386 216 390 234 6 32 -7 462 -14 455z"/>
<path d="M1452 2528 l3 -232 190 -113 c105 -62 194 -113 198 -113 28 0 -19 32
-183 129 l-185 108 -3 227 c-1 142 -6 226 -12 226 -7 0 -9 -82 -8 -232z"/>
<path d="M2950 2736 c0 -9 5 -16 10 -16 6 0 10 4 10 9 0 6 -4 13 -10 16 -5 3
-10 -1 -10 -9z"/>
<path d="M9370 2736 c0 -9 5 -16 10 -16 6 0 10 4 10 9 0 6 -4 13 -10 16 -5 3
-10 -1 -10 -9z"/>
<path d="M760 2676 c0 -9 5 -16 10 -16 6 0 10 4 10 9 0 6 -4 13 -10 16 -5 3
-10 -1 -10 -9z"/>
<path d="M7180 2675 c0 -8 5 -15 10 -15 6 0 10 7 10 15 0 8 -4 15 -10 15 -5 0
-10 -7 -10 -15z"/>
<path d="M2950 2490 c0 -5 5 -10 10 -10 6 0 10 5 10 10 0 6 -4 10 -10 10 -5 0
-10 -4 -10 -10z"/>
<path d="M9370 2490 c0 -5 5 -10 10 -10 6 0 10 5 10 10 0 6 -4 10 -10 10 -5 0
-10 -4 -10 -10z"/>
<path d="M760 2424 c0 -8 5 -12 10 -9 6 4 8 11 5 16 -9 14 -15 11 -15 -7z"/>
<path d="M7180 2425 c0 -8 5 -15 10 -15 6 0 10 7 10 15 0 8 -4 15 -10 15 -5 0
-10 -7 -10 -15z"/>
<path d="M9370 2245 c0 -8 5 -15 10 -15 6 0 10 7 10 15 0 8 -4 15 -10 15 -5 0
-10 -7 -10 -15z"/>
<path d="M2710 2036 c0 -7 8 -16 18 -20 9 -3 23 -9 30 -12 27 -12 10 16 -18
31 -25 13 -30 13 -30 1z"/>
<path d="M7147 1995 c-15 -10 -11 -12 23 -12 40 0 46 10 12 19 -10 3 -26 0
-35 -7z"/>
<path d="M9370 1995 c0 -8 5 -15 10 -15 6 0 10 7 10 15 0 8 -4 15 -10 15 -5 0
-10 -7 -10 -15z"/>
<path d="M3023 1993 c-7 -2 -13 -9 -13 -14 0 -6 8 -5 20 1 15 8 26 7 45 -6 28
-18 33 -13 9 10 -15 16 -37 19 -61 9z"/>
<path d="M6995 1910 c-27 -16 -54 -31 -59 -33 -6 -2 -10 -22 -11 -45 -1 -22 3
-38 7 -36 4 3 8 16 8 30 l0 25 43 -26 c61 -35 81 -31 24 5 -26 16 -47 34 -47
39 0 5 12 14 28 20 41 17 89 51 72 51 -8 0 -37 -14 -65 -30z"/>
<path d="M7280 1929 c8 -5 37 -21 64 -35 l50 -26 -54 -34 c-62 -39 -48 -47 17
-9 l43 26 0 -26 c0 -14 5 -25 11 -25 6 0 9 15 7 36 -3 32 -9 39 -63 69 -33 19
-67 34 -75 34 -13 1 -13 0 0 -10z"/>
<path d="M3220 1902 c0 -5 12 -14 27 -21 l26 -12 -37 -25 c-47 -32 -41 -42 8
-13 l36 21 0 -106 c0 -58 -2 -106 -5 -106 -3 0 -24 12 -46 26 -64 40 -70 22
-6 -21 32 -21 56 -43 54 -49 -2 -6 -54 -41 -116 -78 l-113 -67 -86 52 c-48 28
-99 58 -114 66 -23 13 -28 23 -28 54 0 20 -4 37 -10 37 -5 0 -10 -18 -10 -40
l0 -39 119 -71 c65 -38 123 -70 129 -70 17 0 252 141 252 151 0 9 29 -8 235
-135 181 -111 166 -108 257 -52 43 25 83 49 91 52 8 3 36 -9 64 -26 l50 -31
56 33 57 33 -2 74 -3 73 -55 30 -55 29 -57 -31 -58 -32 0 -62 0 -63 -86 -53
-85 -52 -127 77 c-70 43 -153 93 -185 111 -108 62 -99 47 -99 183 l1 121 -40
20 c-21 11 -39 17 -39 12z m820 -272 c22 -11 40 -24 40 -28 0 -5 -19 -19 -41
-32 l-42 -23 -43 24 c-24 13 -44 26 -44 29 0 7 71 49 83 50 4 0 26 -9 47 -20z
m-85 -76 l44 -25 44 25 c24 14 47 26 51 26 4 0 6 -23 4 -52 -3 -50 -5 -52 -51
-81 l-48 -29 -35 18 c-46 25 -50 31 -27 56 18 21 18 21 -9 14 -19 -4 -28 -2
-29 6 0 7 -2 25 -3 41 -2 33 4 34 59 1z"/>
<path d="M2828 1884 c-27 -14 -28 -18 -28 -86 0 -83 17 -83 22 -1 l3 52 48
-29 c26 -17 47 -26 47 -20 0 5 -20 21 -45 36 -25 14 -45 28 -45 30 0 2 12 10
28 18 15 8 20 15 12 15 -8 0 -27 -7 -42 -15z"/>
<path d="M9245 1820 c4 -6 11 -8 16 -5 14 9 11 15 -7 15 -8 0 -12 -5 -9 -10z"/>
<path d="M930 1796 c0 -9 5 -16 10 -16 6 0 10 4 10 9 0 6 -4 13 -10 16 -5 3
-10 -1 -10 -9z"/>
<path d="M3160 1800 c-8 -5 -11 -12 -7 -16 4 -4 15 0 24 9 18 18 8 23 -17 7z"/>
<path d="M2950 1775 c7 -8 20 -15 29 -15 13 1 13 3 -3 15 -26 19 -42 19 -26 0z"/>
<path d="M4872 1658 c-2 -128 -1 -139 18 -150 11 -7 20 -16 20 -20 0 -3 -39
-28 -87 -56 -49 -27 -128 -74 -178 -104 -88 -54 -383 -229 -478 -283 l-49 -28
-62 33 -61 33 -123 -68 -122 -68 0 -146 0 -147 53 -30 c28 -17 84 -50 124 -73
l71 -42 112 66 112 67 76 -48 c43 -26 91 -55 107 -64 17 -9 80 -47 140 -84 61
-37 117 -71 125 -76 8 -5 52 -32 98 -59 46 -28 90 -51 98 -51 8 0 14 -4 14 -8
0 -8 150 -102 163 -102 30 0 -43 48 -398 261 l-405 243 0 148 0 148 -39 20
c-22 11 -42 24 -45 29 -4 5 49 42 116 81 68 40 151 90 185 111 34 22 67 39 73
39 5 0 10 5 10 10 0 6 4 10 9 10 5 0 93 50 195 110 101 61 190 110 197 110 6
0 45 -20 86 -45 40 -25 79 -45 86 -45 7 0 46 20 86 45 40 25 76 45 81 45 4 0
38 -18 76 -41 80 -47 73 -43 189 -110 50 -28 106 -62 125 -74 19 -12 117 -71
218 -130 100 -60 182 -111 182 -114 0 -4 -20 -17 -45 -31 l-45 -25 0 -153 c0
-152 -4 -173 -36 -179 -11 -2 -134 -75 -429 -253 -88 -53 -193 -116 -233 -140
-42 -25 -69 -47 -64 -52 7 -7 218 116 714 417 l83 50 107 -63 108 -63 122 73
123 73 2 143 1 142 -26 18 c-15 10 -71 42 -125 71 l-98 53 -59 -31 c-32 -17
-63 -31 -70 -31 -7 0 -51 24 -98 53 -48 28 -91 54 -97 57 -5 3 -21 12 -35 21
-14 9 -107 65 -207 124 -101 59 -183 112 -183 116 0 5 -8 9 -17 9 -10 0 -49
20 -87 44 l-69 44 27 17 c26 17 26 18 26 151 0 83 -4 134 -10 134 -6 0 -10
-51 -10 -134 l0 -134 -30 -12 c-27 -11 -34 -10 -70 14 -22 14 -44 26 -50 26
-17 0 -11 -18 8 -24 9 -4 28 -15 41 -25 l23 -18 -68 -43 c-38 -24 -74 -43 -79
-43 -6 0 -44 19 -84 43 l-73 43 24 19 c12 10 31 20 41 24 9 3 17 10 17 15 0
15 -26 10 -51 -9 -38 -29 -58 -33 -84 -16 -24 15 -25 21 -28 147 l-3 132 -2
-137z m-822 -620 c22 -13 40 -27 40 -33 0 -5 -18 -20 -40 -33 -22 -13 -38 -27
-35 -32 3 -5 29 5 56 22 l51 31 44 -21 c24 -12 44 -25 44 -29 0 -8 -202 -133
-214 -133 -8 0 -187 109 -203 124 -10 9 11 25 90 69 56 31 108 57 115 57 7 0
31 -10 52 -22z m2290 -34 c55 -31 100 -59 100 -62 0 -4 -47 -36 -105 -70
l-106 -64 -105 62 c-57 34 -106 65 -108 69 -3 4 15 18 38 31 l44 23 51 -31
c56 -35 61 -37 61 -22 0 5 -18 20 -40 32 -22 13 -40 26 -40 30 0 9 82 58 97
58 7 0 58 -25 113 -56z m-2450 -150 l108 -65 106 65 c59 36 111 66 116 66 11
0 14 -233 3 -243 -3 -4 -30 7 -60 24 -64 37 -72 20 -8 -19 24 -15 44 -29 44
-32 0 -6 -194 -120 -204 -120 -4 0 -56 30 -116 66 l-109 65 0 130 c0 71 3 129
6 129 4 0 55 -30 114 -66z m2231 0 l109 -65 97 60 c146 89 133 95 133 -56 l0
-130 -115 -67 c-63 -37 -118 -66 -122 -64 -28 12 -174 101 -179 109 -3 5 9 17
26 27 49 26 74 48 64 55 -5 3 -34 -10 -64 -29 -30 -18 -58 -34 -62 -34 -5 0
-8 59 -8 130 0 72 3 130 6 130 3 0 55 -30 115 -66z"/>
<path d="M3104 1764 c-17 -14 -17 -15 -1 -10 10 3 23 6 28 6 5 0 9 5 9 10 0
14 -13 12 -36 -6z"/>
<path d="M6925 1692 l3 -88 -42 -26 c-22 -14 -119 -71 -214 -128 l-173 -103
-47 27 c-26 15 -60 34 -77 42 -30 15 -30 16 -30 97 l0 81 -58 33 -59 33 -59
-33 -59 -32 2 -70 3 -69 57 -34 57 -33 38 22 39 22 96 -57 96 -56 179 106 c98
59 190 115 205 125 15 11 34 19 42 19 8 0 65 -29 126 -65 61 -36 116 -65 123
-65 6 0 64 32 129 70 l118 71 0 54 c0 30 -4 57 -10 60 -6 4 -10 -16 -10 -52
l-1 -58 -114 -68 -114 -67 -103 61 c-57 34 -107 65 -112 70 -5 4 13 21 39 37
29 18 43 32 36 36 -6 4 -27 -2 -47 -14 -19 -12 -37 -20 -40 -17 -3 3 -5 39 -5
81 0 42 -4 76 -9 76 -4 0 -7 -40 -5 -88z m-654 -73 c22 -11 39 -25 37 -31 -2
-6 -21 -20 -41 -32 l-37 -21 -37 21 c-46 26 -47 38 -8 63 38 25 38 25 86 0z
m-88 -76 l42 -26 47 26 c27 15 50 27 53 27 3 0 5 -25 5 -55 0 -57 -6 -63 -42
-44 -26 14 -38 1 -15 -16 16 -12 16 -14 -7 -29 -33 -21 -37 -21 -91 11 -44 27
-45 29 -45 80 0 29 2 53 5 53 3 0 24 -12 48 -27z"/>
<path d="M7090 1765 c7 -9 15 -13 17 -11 7 7 -7 26 -19 26 -6 0 -6 -6 2 -15z"/>
<path d="M7400 1765 c0 -8 5 -15 10 -15 6 0 10 7 10 15 0 8 -4 15 -10 15 -5 0
-10 -7 -10 -15z"/>
<path d="M7220 1760 c-8 -5 -12 -12 -9 -15 4 -3 12 1 19 10 14 17 11 19 -10 5z"/>
<path d="M3005 1740 c3 -5 8 -10 11 -10 2 0 4 5 4 10 0 6 -5 10 -11 10 -5 0
-7 -4 -4 -10z"/>
<path d="M7130 1742 c0 -11 23 -22 46 -22 17 0 19 16 2 17 -7 0 -21 4 -30 8
-10 4 -18 3 -18 -3z"/>
<path d="M3045 1730 c-3 -5 -1 -10 4 -10 6 0 11 5 11 10 0 6 -2 10 -4 10 -3 0
-8 -4 -11 -10z"/>
<path d="M7400 1725 c0 -8 5 -15 10 -15 6 0 10 7 10 15 0 8 -4 15 -10 15 -5 0
-10 -7 -10 -15z"/>
<path d="M2610 1700 c0 -5 5 -10 10 -10 6 0 10 5 10 10 0 6 -4 10 -10 10 -5 0
-10 -4 -10 -10z"/>
<path d="M9030 1700 c0 -5 7 -10 15 -10 8 0 15 5 15 10 0 6 -7 10 -15 10 -8 0
-15 -4 -15 -10z"/>
<path d="M1142 1671 c4 -13 18 -16 19 -4 0 4 -5 9 -11 12 -7 2 -11 -2 -8 -8z"/>
<path d="M7560 1670 c0 -5 7 -10 16 -10 8 0 12 5 9 10 -3 6 -10 10 -16 10 -5
0 -9 -4 -9 -10z"/>
<path d="M2405 1579 c-9 -14 -2 -20 14 -10 8 6 9 11 3 15 -6 3 -14 1 -17 -5z"/>
<path d="M8825 1579 c-4 -6 -5 -13 -2 -16 7 -7 27 6 27 18 0 12 -17 12 -25 -2z"/>
<path d="M1350 1551 c0 -5 5 -13 10 -16 6 -3 10 -2 10 4 0 5 -4 13 -10 16 -5
3 -10 2 -10 -4z"/>
<path d="M7776 1552 c-3 -6 -1 -14 5 -17 15 -10 25 3 12 16 -7 7 -13 7 -17 1z"/>
<path d="M2195 1450 c-3 -5 -2 -10 4 -10 5 0 13 5 16 10 3 6 2 10 -4 10 -5 0
-13 -4 -16 -10z"/>
<path d="M8615 1450 c-3 -5 -2 -10 4 -10 5 0 13 5 16 10 3 6 2 10 -4 10 -5 0
-13 -4 -16 -10z"/>
<path d="M1560 1420 c0 -5 7 -10 16 -10 8 0 12 5 9 10 -3 6 -10 10 -16 10 -5
0 -9 -4 -9 -10z"/>
<path d="M7986 1415 c4 -8 10 -12 15 -9 11 6 2 24 -11 24 -5 0 -7 -7 -4 -15z"/>
<path d="M1985 1329 c-9 -14 -2 -20 14 -10 8 6 9 11 3 15 -6 3 -14 1 -17 -5z"/>
<path d="M8405 1329 c-4 -6 -5 -13 -2 -16 7 -7 27 6 27 18 0 12 -17 12 -25 -2z"/>
<path d="M1770 1301 c0 -5 5 -13 10 -16 6 -3 10 -2 10 4 0 5 -4 13 -10 16 -5
3 -10 2 -10 -4z"/>
"/>
<path d="M7632 798 c-19 -19 -15 -34 19 -73 l31 -35 -31 -35 c-34 -39 -38 -54
-19 -73 20 -20 50 -14 83 18 l31 30 29 -30 c30 -31 63 -38 83 -18 19 19 14 40
-20 75 l-32 33 32 33 c34 35 39 56 20 75 -19 19 -53 14 -78 -13 -13 -14 -29
-25 -35 -25 -6 0 -22 11 -35 25 -25 27 -59 32 -78 13z"/>
<path d="M9881 574 c-12 -15 -21 -37 -21 -50 0 -33 34 -64 70 -64 l30 0 0 70
0 70 -29 0 c-20 0 -36 -9 -50 -26z"/>
</g>
</svg>